<svg xmlns="http://www.w3.org/2000/svg"  viewBox="0 0 24 24" width="100px" height="100px"><path d="M 12 2.0078125 C 8.267 2.0078125 5.0168281 4.0578437 3.2988281 7.0898438 L 8.0117188 12.117188 C 8.0107187 12.077187 8 12.04 8 12 C 8 9.791 9.791 8 12 8 C 12.002 8 12.005812 8.0019531 12.007812 8.0019531 L 12.007812 8 L 21.158203 8 C 19.613203 4.474 16.096 2.0078125 12 2.0078125 z M 2.8203125 8.0429688 C 2.2943125 9.2589688 2 10.598812 2 12.007812 C 2 17.371813 6.2262969 21.736375 11.529297 21.984375 L 13.914062 15.490234 C 13.343063 15.804234 12.698 16 12 16 C 10.938 16 9.9787187 15.578344 9.2617188 14.902344 L 9.2558594 14.908203 L 9.2148438 14.863281 C 9.1738437 14.823281 9.1376562 14.780281 9.0976562 14.738281 L 2.8203125 8.0429688 z M 12 9 C 10.346 9 9 10.346 9 12 C 9 12.788 9.3125469 13.500156 9.8105469 14.035156 L 9.921875 14.154297 C 10.461875 14.676297 11.192 15 12 15 C 13.654 15 15 13.654 15 12 C 15 10.346 13.654 9 12 9 z M 14.619141 9 C 15.458141 9.733 16 10.798 16 12 C 16 12.429 15.914062 12.834656 15.789062 13.222656 L 15.8125 13.230469 L 12.597656 21.978516 C 17.839656 21.668516 22 17.329813 22 12.007812 C 22 10.959813 21.836109 9.95 21.537109 9 L 14.619141 9 z"/></svg>