<svg xmlns="http://www.w3.org/2000/svg" viewBox="0 0 24 24" width="96px" height="96px" fill="#000000" stroke="#000000" stroke-width="0.8">
  <path d="M 3.4980469 1.9921875 A 0.50005 0.50005 0 0 0 3.0019531 2.5488281 L 4.890625 19.5625 A 0.50005 0.50005 0 0 0 5.2441406 19.986328 L 11.855469 21.986328 A 0.50005 0.50005 0 0 0 12.144531 21.986328 L 18.757812 19.984375 A 0.50005 0.50005 0 0 0 19.109375 19.560547 L 20.998047 2.5488281 A 0.50005 0.50005 0 0 0 20.501953 1.9921875 L 3.4980469 1.9921875 z M 4.0585938 2.9921875 L 19.943359 2.9921875 L 18.152344 19.123047 L 12 20.986328 L 5.8476562 19.123047 L 4.0585938 2.9921875 z M 7.9667969 5.9921875 A 0.50005 0.50005 0 1 0 7.9667969 6.9921875 L 15.472656 6.9921875 L 15.029297 10.992188 L 10.503906 10.992188 A 0.50005 0.50005 0 1 0 10.503906 11.992188 L 14.917969 11.992188 L 14.466797 16.058594 L 12 16.810547 L 9.5332031 16.058594 L 9.3515625 14.4375 A 0.50017733 0.50017733 0 1 0 8.3574219 14.548828 L 8.5742188 16.496094 A 0.50005 0.50005 0 0 0 8.9257812 16.917969 L 11.853516 17.810547 A 0.50005 0.50005 0 0 0 12.146484 17.810547 L 15.072266 16.917969 A 0.50005 0.50005 0 0 0 15.423828 16.496094 L 16.529297 6.5488281 A 0.50005 0.50005 0 0 0 16.03125 5.9921875 L 7.9667969 5.9921875 z"/>
</svg>
