<svg xmlns="http://www.w3.org/2000/svg" viewBox="0 0 200 200">
                <path class="st0" d="M199.5,100c0-14.9-9.9-27.5-23.6-31.5c6.8-12.5,4.9-28.4-5.6-38.9s-26.5-12.4-38.9-5.6
    c-4-13.6-16.6-23.6-31.5-23.6S72.5,10.4,68.5,24c-12.5-6.8-28.4-4.9-38.9,5.6S17.2,56.1,24,68.5C10.4,72.5,0.5,85.1,0.5,100
    s9.9,27.5,23.6,31.5c-6.8,12.5-4.9,28.4,5.6,38.9s26.5,12.4,38.9,5.6c4,13.6,16.6,23.6,31.5,23.6s27.5-9.9,31.5-23.6
    c12.5,6.8,28.4,4.9,38.9-5.6s12.4-26.5,5.6-38.9C189.6,127.5,199.5,114.9,199.5,100z" style="fill:#ff0096"></path>
                  <path d="M44.29,124.35V78.13H64.24a19,19,0,0,1,9,2,14.74,14.74,0,0,1,6,5.71,16.76,16.76,0,0,1,2.15,8.6,16.34,16.34,0,0,1-2.2,8.6,14.69,14.69,0,0,1-6.17,5.6,20.54,20.54,0,0,1-9.24,2H51.87v-9.75h9.39A8.38,8.38,0,0,0,65,100.1a5.66,5.66,0,0,0,2.42-2.22,6.68,6.68,0,0,0,.84-3.41,6.52,6.52,0,0,0-.84-3.4A5.62,5.62,0,0,0,65,88.9a8.67,8.67,0,0,0-3.78-.75H56.84v36.2Z" style="fill:#fff"></path>
                  <path d="M79.65,124.35V78.13H99.6a20.43,20.43,0,0,1,9,1.87,14.08,14.08,0,0,1,6,5.39,16,16,0,0,1,2.14,8.45,15.08,15.08,0,0,1-2.2,8.37,13.66,13.66,0,0,1-6.16,5.15,22.81,22.81,0,0,1-9.24,1.73H87.23V99.34h9.39a11.42,11.42,0,0,0,3.78-.55A4.81,4.81,0,0,0,102.82,97a5.48,5.48,0,0,0,.84-3.18,5.69,5.69,0,0,0-.84-3.24,4.88,4.88,0,0,0-2.42-1.85,10.63,10.63,0,0,0-3.78-.6H92.19v36.2Zm27.08-21.21,11.56,21.21H104.65L93.37,103.14Z" style="fill:#fff"></path>
                  <path d="M160.51,101.24a25.92,25.92,0,0,1-3,13,20.09,20.09,0,0,1-8.1,8,25.11,25.11,0,0,1-22.79,0,20.13,20.13,0,0,1-8.08-8,26.05,26.05,0,0,1-3-13,26.13,26.13,0,0,1,3-13,20.11,20.11,0,0,1,8.08-8,25.23,25.23,0,0,1,22.79,0,20.09,20.09,0,0,1,8.1,8A25.92,25.92,0,0,1,160.51,101.24Zm-12.91,0a19.65,19.65,0,0,0-1.1-7,9,9,0,0,0-16.95,0,19.65,19.65,0,0,0-1.1,7,19.68,19.68,0,0,0,1.1,7,9,9,0,0,0,16.95,0A19.68,19.68,0,0,0,147.6,101.24Z" style="fill:#fff"></path>
                </svg>